<svg xmlns="http://www.w3.org/2000/svg" width="16" height="16" viewBox="0 0 16 16" fill="none">
    <path
        d="M7.33317 12.0003C7.33317 12.7337 6.73317 13.3337 5.99984 13.3337C5.2665 13.3337 4.6665 12.7337 4.6665 12.0003C4.6665 11.267 5.2665 10.667 5.99984 10.667C6.73317 10.667 7.33317 11.267 7.33317 12.0003ZM5.99984 6.66699C5.2665 6.66699 4.6665 7.26699 4.6665 8.00033C4.6665 8.73366 5.2665 9.33366 5.99984 9.33366C6.73317 9.33366 7.33317 8.73366 7.33317 8.00033C7.33317 7.26699 6.73317 6.66699 5.99984 6.66699ZM5.99984 2.66699C5.2665 2.66699 4.6665 3.26699 4.6665 4.00033C4.6665 4.73366 5.2665 5.33366 5.99984 5.33366C6.73317 5.33366 7.33317 4.73366 7.33317 4.00033C7.33317 3.26699 6.73317 2.66699 5.99984 2.66699ZM9.99984 5.33366C10.7332 5.33366 11.3332 4.73366 11.3332 4.00033C11.3332 3.26699 10.7332 2.66699 9.99984 2.66699C9.2665 2.66699 8.6665 3.26699 8.6665 4.00033C8.6665 4.73366 9.2665 5.33366 9.99984 5.33366ZM9.99984 6.66699C9.2665 6.66699 8.6665 7.26699 8.6665 8.00033C8.6665 8.73366 9.2665 9.33366 9.99984 9.33366C10.7332 9.33366 11.3332 8.73366 11.3332 8.00033C11.3332 7.26699 10.7332 6.66699 9.99984 6.66699ZM9.99984 10.667C9.2665 10.667 8.6665 11.267 8.6665 12.0003C8.6665 12.7337 9.2665 13.3337 9.99984 13.3337C10.7332 13.3337 11.3332 12.7337 11.3332 12.0003C11.3332 11.267 10.7332 10.667 9.99984 10.667Z"
        fill="#9CA3AF" />
</svg>